<svg xmlns="http://www.w3.org/2000/svg" xmlns:v="https://vecta.io/nano" width="1809" height="522" fill="none" fill-rule="evenodd"><path d="M1704.5 100.476h1v357h-1v-357zm86-67h1v450h-1v-450zm-175 114h1v318h-1v-318zm-85 93h1v207h-1v-207zm-89 58h1v171h-1v-171zm-83 74h1v81h-1v-81z" fill="#333"></path><g fill="#444"><path d="M16.5 478c9.113 0 16.5 7.611 16.5 17s-7.387 17-16.5 17S0 504.389 0 495s7.387-17 16.5-17zm0 8c-4.694 0-8.5 4.03-8.5 9s3.806 9 8.5 9 8.5-4.03 8.5-9-3.806-9-8.5-9zm93-32c9.113 0 16.5 7.611 16.5 17s-7.387 17-16.5 17S93 480.389 93 471s7.387-17 16.5-17zm0 8c-4.694 0-8.5 4.03-8.5 9s3.806 9 8.5 9 8.5-4.03 8.5-9-3.806-9-8.5-9zm103 16c9.113 0 16.5 7.611 16.5 17s-7.387 17-16.5 17-16.5-7.611-16.5-17 7.387-17 16.5-17zm0 8c-4.694 0-8.5 4.03-8.5 9s3.806 9 8.5 9 8.5-4.03 8.5-9-3.806-9-8.5-9zm93-32c9.113 0 16.5 7.611 16.5 17s-7.387 17-16.5 17-16.5-7.611-16.5-17 7.387-17 16.5-17zm0 8c-4.694 0-8.5 4.03-8.5 9s3.806 9 8.5 9 8.5-4.03 8.5-9-3.806-9-8.5-9zm91.019 58.01c-8.046-4.278-10.995-14.466-6.588-22.756s14.504-11.542 22.55-7.264 10.995 14.466 6.588 22.756-14.504 11.542-22.55 7.264zm3.756-7.063c4.145 2.203 9.397.432 11.73-3.956s.865-9.734-3.28-11.938-9.397-.432-11.73 3.956-.865 9.734 3.28 11.938zm91.244-24.937c-8.046-4.278-10.995-14.466-6.588-22.756s14.504-11.542 22.55-7.264 10.995 14.466 6.588 22.756-14.504 11.542-22.55 7.264zm3.756-7.063c4.145 2.203 9.397.432 11.73-3.956s.865-9.734-3.28-11.938-9.397-.432-11.73 3.956-.865 9.734 3.28 11.938zm93.244 30.063c-8.046-4.278-10.995-14.466-6.588-22.756s14.504-11.542 22.55-7.264 10.995 14.466 6.588 22.756-14.504 11.542-22.55 7.264zm3.756-7.063c4.145 2.203 9.397.432 11.73-3.956s.865-9.734-3.28-11.938-9.397-.432-11.73 3.956-.865 9.734 3.28 11.938zm98.244-25.937c-8.046-4.278-10.995-14.466-6.588-22.756s14.504-11.542 22.55-7.264 10.995 14.466 6.588 22.756-14.504 11.542-22.55 7.264zm3.756-7.063c4.145 2.203 9.397.432 11.73-3.956s.865-9.734-3.28-11.938-9.397-.432-11.73 3.956-.865 9.734 3.28 11.938zm94.244 29.063c-8.046-4.278-10.995-14.466-6.588-22.756s14.504-11.542 22.55-7.264 10.995 14.466 6.588 22.756-14.504 11.542-22.55 7.264zm3.756-7.063c4.145 2.203 9.397.432 11.73-3.956s.865-9.734-3.28-11.938-9.397-.432-11.73 3.956-.865 9.734 3.28 11.938zm92.244-13.937c-8.046-4.278-10.995-14.466-6.588-22.756s14.504-11.542 22.55-7.264 10.995 14.466 6.588 22.756-14.504 11.542-22.55 7.264zm3.756-7.063c4.145 2.203 9.397.432 11.73-3.956s.865-9.734-3.28-11.938-9.397-.432-11.73 3.956-.865 9.734 3.28 11.938zm94.244 38.063c-8.046-4.278-10.995-14.466-6.588-22.756s14.504-11.542 22.55-7.264 10.995 14.466 6.588 22.756-14.504 11.542-22.55 7.264zm3.756-7.063c4.145 2.203 9.397.432 11.73-3.956s.865-9.734-3.28-11.938-9.397-.432-11.73 3.956-.865 9.734 3.28 11.938zm94.244-25.937c-8.046-4.278-10.995-14.466-6.588-22.756s14.504-11.542 22.55-7.264 10.995 14.466 6.588 22.756-14.504 11.542-22.55 7.264zm3.756-7.063c4.145 2.203 9.397.432 11.73-3.956s.865-9.734-3.28-11.938-9.397-.432-11.73 3.956-.865 9.734 3.28 11.938z"></path><path d="M1080.519 477.01c-8.046-4.278-10.995-14.466-6.588-22.756s14.504-11.542 22.55-7.264 10.995 14.466 6.588 22.756-14.504 11.542-22.55 7.264zm3.756-7.063c4.145 2.203 9.397.432 11.73-3.956s.865-9.734-3.28-11.938-9.397-.432-11.73 3.956-.865 9.734 3.28 11.938zm92.244 31.063c-8.046-4.278-10.995-14.466-6.588-22.756s14.504-11.542 22.55-7.264 10.995 14.466 6.588 22.756-14.504 11.542-22.55 7.264zm3.756-7.063c4.145 2.203 9.397.432 11.73-3.956s.865-9.734-3.28-11.938-9.397-.432-11.73 3.956-.865 9.734 3.28 11.938z"></path></g><path stroke="#444" stroke-width="9" d="M26.5 492.563l73-21.063m24.25.5l77.75 20.5m24.375-.25L295.5 471.5m23.313 2.375L392.5 500.5m23.344 3.313L486.5 476.5m24.328-2.344L583.5 493.5m24.336-.328L685.5 465.5m24.332-1.664L783.5 482.5m27 1l71-18m24.333 1.666L978.5 491.5m24.333 1.667L1077.5 465.5m20.333-1.667L1173.5 484.5m25-2l71-29"></path><g fill="#222"><path d="M1351.519 478.01c-8.046-4.278-10.995-14.466-6.588-22.756s14.504-11.542 22.55-7.264 10.995 14.466 6.588 22.756-14.504 11.542-22.55 7.264zm3.756-7.063c4.145 2.203 9.397.432 11.73-3.956s.865-9.734-3.28-11.938-9.397-.432-11.73 3.956-.865 9.734 3.28 11.938zm79.244 24.063c-8.046-4.278-10.995-14.466-6.588-22.756s14.504-11.542 22.55-7.264 10.995 14.466 6.588 22.756-14.504 11.542-22.55 7.264zm3.756-7.063c4.145 2.203 9.397.432 11.73-3.956s.865-9.734-3.28-11.938-9.397-.432-11.73 3.956-.865 9.734 3.28 11.938zm85.244-8.937c-8.046-4.278-10.995-14.466-6.588-22.756s14.504-11.542 22.55-7.264 10.995 14.466 6.588 22.756-14.504 11.542-22.55 7.264zm3.756-7.063c4.145 2.203 9.397.432 11.73-3.956s.865-9.734-3.28-11.938-9.397-.432-11.73 3.956-.865 9.734 3.28 11.938zm80.244 24.063c-8.046-4.278-10.995-14.466-6.588-22.756s14.504-11.542 22.55-7.264 10.995 14.466 6.588 22.756-14.504 11.542-22.55 7.264zm3.756-7.063c4.145 2.203 9.397.432 11.73-3.956s.865-9.734-3.28-11.938-9.397-.432-11.73 3.956-.865 9.734 3.28 11.938zm86.244-1.937c-8.046-4.278-10.995-14.466-6.588-22.756s14.504-11.542 22.55-7.264 10.995 14.466 6.588 22.756-14.504 11.542-22.55 7.264zm3.756-7.063c4.145 2.203 9.397.432 11.73-3.956s.865-9.734-3.28-11.938-9.397-.432-11.73 3.956-.865 9.734 3.28 11.938zm82.244 28.063c-8.046-4.278-10.995-14.466-6.588-22.756s14.504-11.542 22.55-7.264 10.995 14.466 6.588 22.756-14.504 11.542-22.55 7.264zm3.756-7.063c4.145 2.203 9.397.432 11.73-3.956s.865-9.734-3.28-11.938-9.397-.432-11.73 3.956-.865 9.734 3.28 11.938z"></path><path stroke="#222" stroke-width="9" d="M1296.5 451.5l50 10m28.5 5.5l54.5 11.5m28.25.25l59.75-11.25m29-1l56 13m28.625-.125l61.375-6.875m28 2l58 15"></path></g><g fill="#666"><path d="M1274.519 462.01c-8.046-4.278-10.995-14.466-6.588-22.756s14.504-11.542 22.55-7.264 10.995 14.466 6.588 22.756-14.504 11.542-22.55 7.264zm3.756-7.063c4.145 2.203 9.397.432 11.73-3.956s.865-9.734-3.28-11.938-9.397-.432-11.73 3.956-.865 9.734 3.28 11.938zm71.244-83.937c-8.046-4.278-10.995-14.466-6.588-22.756s14.504-11.542 22.55-7.264 10.995 14.466 6.588 22.756-14.504 11.542-22.55 7.264zm3.756-7.063c4.145 2.203 9.397.432 11.73-3.956s.865-9.734-3.28-11.938-9.397-.432-11.73 3.956-.865 9.734 3.28 11.938zm80.244-61.937c-8.046-4.278-10.995-14.466-6.588-22.756s14.504-11.542 22.55-7.264 10.995 14.466 6.588 22.756-14.504 11.542-22.55 7.264zm3.756-7.063c4.145 2.203 9.397.432 11.73-3.956s.865-9.734-3.28-11.938-9.397-.432-11.73 3.956-.865 9.734 3.28 11.938zm85.244-49.937c-8.046-4.278-10.995-14.466-6.588-22.756s14.504-11.542 22.55-7.264 10.995 14.466 6.588 22.756-14.504 11.542-22.55 7.264zm3.756-7.063c4.145 2.203 9.397.432 11.73-3.956s.865-9.734-3.28-11.938-9.397-.432-11.73 3.956-.865 9.734 3.28 11.938zm81.244-84.937c-8.046-4.278-10.995-14.466-6.588-22.756s14.504-11.542 22.55-7.264 10.995 14.466 6.588 22.756-14.504 11.542-22.55 7.264zm3.756-7.063c4.145 2.203 9.397.432 11.73-3.956s.865-9.734-3.28-11.938-9.397-.432-11.73 3.956-.865 9.734 3.28 11.938zm85.244-43.937c-8.046-4.278-10.995-14.466-6.588-22.756s14.504-11.542 22.55-7.264 10.995 14.466 6.588 22.756-14.504 11.542-22.55 7.264zm3.756-7.063c4.145 2.203 9.397.432 11.73-3.956s.865-9.734-3.28-11.938-9.397-.432-11.73 3.956-.865 9.734 3.28 11.938zm82.244-62.937c-8.046-4.278-10.995-14.466-6.588-22.756s14.504-11.542 22.55-7.264 10.995 14.466 6.588 22.756-14.504 11.542-22.55 7.264zm3.756-7.063c4.145 2.203 9.397.432 11.73-3.956s.865-9.734-3.28-11.938-9.397-.432-11.73 3.956-.865 9.734 3.28 11.938z"></path><path stroke="#666" stroke-width="9" d="M1290.5 438.5l61-75M1368 347l61.5-51.5m24.25-13.75l63.75-44.25m22-18l65-70m24-18l66-40m22.344-11.969L1780.5 25.5"></path><path d="M1263.212 392.743a1.84 1.84 0 00-1.19-.272c-1.003.111-1.732 1-1.629 1.982l3.034 28.85-25.684-6.902a1.85 1.85 0 00-2.255 1.257 1.77 1.77 0 001.26 2.2l28.278 7.599c.582.155 1.209.019 1.673-.369.462-.385.703-.972.64-1.56l-3.312-31.477a1.76 1.76 0 00-.815-1.308z" fill-rule="nonzero"></path></g><path d="M1264.441 424.393c-30.915-41.132-60.542-68.393-88.882-81.786" stroke="#666" stroke-width="4" stroke-linecap="round"></path></svg>